<svg height="512pt" viewBox="0 -46 512 512" width="512pt" xmlns="http://www.w3.org/2000/svg"><g fill="#e0f4ff"><path d="m212 150c0-33.089844-26.910156-60-60-60s-60 26.910156-60 60h30c0-16.539062 13.460938-30 30-30s30 13.460938 30 30-13.460938 30-30 30h-152v30h152c33.089844 0 60-26.910156 60-60zm0 0"/><path d="m512 330c0 49.5-40.5 90-90 90s-90-40.5-90-90h30c0 33 27 60 60 60s60-27 60-60-27-60-60-60h-422v-30h422c49.5 0 90 40.5 90 90zm0 0"/><path d="m0 300h182v30h-182zm0 0"/></g><path d="m347 180c-41.351562 0-75-33.648438-75-75s33.648438-75 75-75 75 33.648438 75 75h30c0-57.890625-47.109375-105-105-105s-105 47.109375-105 105 47.109375 105 105 105h165v-30zm0 0" fill="#bbdcff"/><path d="m512 330c0 49.5-40.5 90-90 90s-90-40.5-90-90h30c0 33 27 60 60 60s60-27 60-60-27-60-60-60h-180v-30h180c49.5 0 90 40.5 90 90zm0 0" fill="#bbdcff"/></svg>